<mxfile host="app.diagrams.net" modified="2021-02-12T13:23:39.222Z" agent="5.0 (Macintosh; Intel Mac OS X 10_15_4) AppleWebKit/537.36 (KHTML, like Gecko) Chrome/88.0.4324.150 Safari/537.36" etag="QFfAwW6x5j6FbtCC0vVj" version="14.2.5" type="github">
  <diagram id="sqTD99wUGeSVau689WZg" name="Page-1">
    <mxGraphModel dx="946" dy="1714" grid="1" gridSize="10" guides="1" tooltips="1" connect="1" arrows="1" fold="1" page="1" pageScale="1" pageWidth="850" pageHeight="1100" math="0" shadow="0">
      <root>
        <mxCell id="0" />
        <mxCell id="1" parent="0" />
        <mxCell id="pU7Had_HaiKOC5eS7y1O-1" value="View/Activity/Fragment" style="rounded=0;whiteSpace=wrap;html=1;" vertex="1" parent="1">
          <mxGeometry x="70" y="230" width="120" height="210" as="geometry" />
        </mxCell>
        <mxCell id="pU7Had_HaiKOC5eS7y1O-2" value="ViewModel" style="rounded=0;whiteSpace=wrap;html=1;" vertex="1" parent="1">
          <mxGeometry x="250" y="230" width="120" height="210" as="geometry" />
        </mxCell>
        <mxCell id="pU7Had_HaiKOC5eS7y1O-3" value="Domain/ Use Case Layer" style="rounded=0;whiteSpace=wrap;html=1;dashed=1;dashPattern=1 1;" vertex="1" parent="1">
          <mxGeometry x="425" y="230" width="120" height="210" as="geometry" />
        </mxCell>
        <mxCell id="pU7Had_HaiKOC5eS7y1O-4" value="Data layer(Reporisotry pattern)&lt;br&gt;Singlton/ App life time&amp;nbsp;" style="rounded=0;whiteSpace=wrap;html=1;" vertex="1" parent="1">
          <mxGeometry x="590" y="230" width="120" height="210" as="geometry" />
        </mxCell>
        <mxCell id="pU7Had_HaiKOC5eS7y1O-5" value="" style="endArrow=classic;html=1;exitX=0;exitY=0.5;exitDx=0;exitDy=0;entryX=1;entryY=0.5;entryDx=0;entryDy=0;" edge="1" parent="1" source="pU7Had_HaiKOC5eS7y1O-4" target="pU7Had_HaiKOC5eS7y1O-3">
          <mxGeometry width="50" height="50" relative="1" as="geometry">
            <mxPoint x="400" y="310" as="sourcePoint" />
            <mxPoint x="450" y="260" as="targetPoint" />
          </mxGeometry>
        </mxCell>
        <mxCell id="pU7Had_HaiKOC5eS7y1O-6" value="" style="endArrow=classic;html=1;exitX=0;exitY=0.5;exitDx=0;exitDy=0;entryX=1;entryY=0.5;entryDx=0;entryDy=0;" edge="1" parent="1" source="pU7Had_HaiKOC5eS7y1O-7">
          <mxGeometry width="50" height="50" relative="1" as="geometry">
            <mxPoint x="425" y="330" as="sourcePoint" />
            <mxPoint x="380" y="330" as="targetPoint" />
          </mxGeometry>
        </mxCell>
        <mxCell id="pU7Had_HaiKOC5eS7y1O-7" value="presenter" style="rounded=0;whiteSpace=wrap;html=1;dashed=1;" vertex="1" parent="1">
          <mxGeometry x="390" y="240" width="20" height="190" as="geometry" />
        </mxCell>
        <mxCell id="pU7Had_HaiKOC5eS7y1O-8" value="" style="endArrow=classic;html=1;exitX=0;exitY=0.5;exitDx=0;exitDy=0;entryX=1;entryY=0.5;entryDx=0;entryDy=0;" edge="1" parent="1" target="pU7Had_HaiKOC5eS7y1O-7">
          <mxGeometry width="50" height="50" relative="1" as="geometry">
            <mxPoint x="425" y="330" as="sourcePoint" />
            <mxPoint x="380" y="330" as="targetPoint" />
          </mxGeometry>
        </mxCell>
        <mxCell id="pU7Had_HaiKOC5eS7y1O-9" value="" style="endArrow=classic;html=1;exitX=0;exitY=0.5;exitDx=0;exitDy=0;entryX=1;entryY=0.5;entryDx=0;entryDy=0;" edge="1" parent="1">
          <mxGeometry width="50" height="50" relative="1" as="geometry">
            <mxPoint x="250" y="334.5" as="sourcePoint" />
            <mxPoint x="205" y="334.5" as="targetPoint" />
          </mxGeometry>
        </mxCell>
        <mxCell id="pU7Had_HaiKOC5eS7y1O-10" value="Observable patteren&amp;nbsp;&lt;br&gt;Rxjava&lt;br&gt;LiveData&lt;br&gt;Flow" style="text;html=1;align=center;verticalAlign=middle;resizable=0;points=[];autosize=1;" vertex="1" parent="1">
          <mxGeometry x="185" y="110" width="130" height="60" as="geometry" />
        </mxCell>
        <mxCell id="pU7Had_HaiKOC5eS7y1O-11" value="" style="endArrow=classic;html=1;entryX=0.008;entryY=0.381;entryDx=0;entryDy=0;entryPerimeter=0;dashed=1;" edge="1" parent="1" target="pU7Had_HaiKOC5eS7y1O-2">
          <mxGeometry width="50" height="50" relative="1" as="geometry">
            <mxPoint x="190" y="310" as="sourcePoint" />
            <mxPoint x="240" y="260" as="targetPoint" />
          </mxGeometry>
        </mxCell>
        <mxCell id="pU7Had_HaiKOC5eS7y1O-12" value="Consumer" style="ellipse;whiteSpace=wrap;html=1;dashed=1;dashPattern=1 1;" vertex="1" parent="1">
          <mxGeometry x="370" y="-40" width="120" height="80" as="geometry" />
        </mxCell>
        <mxCell id="pU7Had_HaiKOC5eS7y1O-13" value="Producer/ publish &lt;br&gt;List of observer&lt;br&gt;event ()" style="ellipse;whiteSpace=wrap;html=1;dashed=1;dashPattern=1 1;" vertex="1" parent="1">
          <mxGeometry x="690" y="-40" width="120" height="80" as="geometry" />
        </mxCell>
        <mxCell id="pU7Had_HaiKOC5eS7y1O-14" value="" style="endArrow=classic;html=1;dashed=1;exitX=0;exitY=0.588;exitDx=0;exitDy=0;exitPerimeter=0;entryX=1;entryY=0.5;entryDx=0;entryDy=0;" edge="1" parent="1" source="pU7Had_HaiKOC5eS7y1O-13" target="pU7Had_HaiKOC5eS7y1O-12">
          <mxGeometry width="50" height="50" relative="1" as="geometry">
            <mxPoint x="400" y="140" as="sourcePoint" />
            <mxPoint x="450" y="90" as="targetPoint" />
            <Array as="points">
              <mxPoint x="610" y="-90" />
            </Array>
          </mxGeometry>
        </mxCell>
        <mxCell id="pU7Had_HaiKOC5eS7y1O-15" value="Observer&lt;hr&gt;&lt;hr&gt;&amp;nbsp;interface&lt;br&gt;&lt;br&gt;//Register&lt;br&gt;&lt;br&gt;//Deregister&lt;br&gt;&lt;br&gt;" style="ellipse;whiteSpace=wrap;html=1;dashed=1;dashPattern=1 1;" vertex="1" parent="1">
          <mxGeometry x="550" y="-160" width="120" height="80" as="geometry" />
        </mxCell>
        <mxCell id="pU7Had_HaiKOC5eS7y1O-16" value="Consumer" style="ellipse;whiteSpace=wrap;html=1;dashed=1;dashPattern=1 1;" vertex="1" parent="1">
          <mxGeometry x="380" y="-30" width="120" height="80" as="geometry" />
        </mxCell>
        <mxCell id="pU7Had_HaiKOC5eS7y1O-17" value="Consumer" style="ellipse;whiteSpace=wrap;html=1;dashed=1;dashPattern=1 1;" vertex="1" parent="1">
          <mxGeometry x="390" y="-20" width="120" height="80" as="geometry" />
        </mxCell>
        <mxCell id="pU7Had_HaiKOC5eS7y1O-18" value="Consumer" style="ellipse;whiteSpace=wrap;html=1;dashed=1;dashPattern=1 1;" vertex="1" parent="1">
          <mxGeometry x="400" y="-10" width="120" height="80" as="geometry" />
        </mxCell>
        <mxCell id="pU7Had_HaiKOC5eS7y1O-19" value="Consumer" style="ellipse;whiteSpace=wrap;html=1;dashed=1;dashPattern=1 1;" vertex="1" parent="1">
          <mxGeometry x="410" width="120" height="80" as="geometry" />
        </mxCell>
        <mxCell id="pU7Had_HaiKOC5eS7y1O-20" value="//ViewMode&lt;br&gt;&lt;br&gt;&lt;br&gt;&lt;br&gt;&lt;br&gt;&lt;br&gt;datasteram.observe(this" style="text;html=1;align=center;verticalAlign=middle;resizable=0;points=[];autosize=1;" vertex="1" parent="1">
          <mxGeometry x="30" y="-260" width="140" height="100" as="geometry" />
        </mxCell>
      </root>
    </mxGraphModel>
  </diagram>
</mxfile>
